<svg width="141" height="25" viewBox="0 0 141 25" fill="none" xmlns="http://www.w3.org/2000/svg">
<path d="M16.7472 0.549999V14.55L4.88223 0.549999H0.0872282V24H5.86223V10.42L17.7272 24H22.4872V0.549999H16.7472ZM44.1465 15.215C44.1115 12.415 43.2015 10.175 41.4865 8.46C39.7715 6.745 37.6365 5.905 35.0815 5.905C32.4565 5.905 30.2515 6.78 28.4665 8.53C26.6815 10.28 25.7715 12.52 25.7715 15.215C25.7715 17.945 26.6815 20.185 28.4665 21.935C30.2515 23.65 32.4565 24.525 35.0465 24.525C39.1415 24.525 42.2565 22.67 43.7615 19.03L38.7915 18.015C38.0565 19.38 36.7965 20.045 35.0465 20.045C33.1915 20.045 31.7215 18.75 31.2665 16.65H44.1465V15.215ZM35.0815 10.455C36.7615 10.455 38.0915 11.4 38.6165 13.22H31.3715C31.8965 11.505 33.4365 10.455 35.0815 10.455ZM64.928 6.395H58.488L55.128 11.855L51.733 6.395H45.328L51.103 15.495L45.328 24H51.733L55.128 18.925L58.488 24H64.928L59.118 15.495L64.928 6.395ZM79.7861 18.82C78.9811 19.275 78.1061 19.52 77.2311 19.52C75.6561 19.52 74.8861 18.68 74.8861 16.965V10.875H80.0661V6.43H74.8861V0.549999H69.2861V6.43H66.1011V10.875H69.2861V17.525C69.2861 22.11 71.8411 24.525 76.2861 24.525C77.8611 24.525 79.4711 24.105 81.0811 23.23L79.7861 18.82Z" fill="#131A3D"/>
<path d="M113.457 0.549999L105.582 15.075L97.7074 0.549999H92.0374V24H97.6374V12.24L103.797 24H107.367L113.492 12.31V24H119.092V0.549999H113.457ZM140.711 15.215C140.676 12.415 139.766 10.175 138.051 8.46C136.336 6.745 134.201 5.905 131.646 5.905C129.021 5.905 126.816 6.78 125.031 8.53C123.246 10.28 122.336 12.52 122.336 15.215C122.336 17.945 123.246 20.185 125.031 21.935C126.816 23.65 129.021 24.525 131.611 24.525C135.706 24.525 138.821 22.67 140.326 19.03L135.356 18.015C134.621 19.38 133.361 20.045 131.611 20.045C129.756 20.045 128.286 18.75 127.831 16.65H140.711V15.215ZM131.646 10.455C133.326 10.455 134.656 11.4 135.181 13.22H127.936C128.461 11.505 130.001 10.455 131.646 10.455Z" fill="url(#paint0_linear_1_22)"/>
<defs>
<linearGradient id="paint0_linear_1_22" x1="70" y1="-7" x2="70" y2="34" gradientUnits="userSpaceOnUse">
<stop stop-color="#6F8DD9"/>
<stop offset="1" stop-color="#3677E0"/>
</linearGradient>
</defs>
</svg>
