<svg width="50" height="50" viewBox="0 0 50 50" fill="none" xmlns="http://www.w3.org/2000/svg">
<g clip-path="url(#clip0_26_4)">
<path d="M22.9167 19.0833V4.16666C12.5 5.20832 4.16667 14.1458 4.16667 25C4.16667 35.8542 12.5 44.7917 22.9167 45.8333V30.9167C20.8333 30.0625 18.75 27.75 18.75 25C18.75 22.25 20.8333 19.9375 22.9167 19.0833ZM30.9583 22.9167H45.8333C44.8333 13.0208 37.5 5.14582 27.0833 4.16666V19.0833C29.1667 19.7083 30.25 21.125 30.9583 22.9167ZM27.0833 30.9167V45.8333C37.5 44.8542 44.8333 36.9792 45.8333 27.0833H30.9583C30.25 28.875 29.1667 30.2917 27.0833 30.9167Z" fill="white"/>
</g>
<defs>
<clipPath id="clip0_26_4">
<rect width="50" height="50" fill="white"/>
</clipPath>
</defs>
</svg>
